<svg xmlns="http://www.w3.org/2000/svg">

  <symbol id="scroll" viewBox="0 0 16 16">
    <path d="M6.46966 8.92111L0.396437 2.84786C0.103531 2.55496 0.103531 2.08008 0.396437 1.78721L1.10478 1.07886C1.39719 0.786458 1.87109 0.785895 2.16419 1.07761L7 5.89077L11.8358 1.07761C12.1289 0.785895 12.6028 0.786458 12.8952 1.07886L13.6035 1.78721C13.8964 2.08011 13.8964 2.55499 13.6035 2.84786L7.53034 8.92111C7.23744 9.21399 6.76256 9.21399 6.46966 8.92111Z" fill="white"/>
  </symbol>
  
  <symbol id="search" viewBox="0 0 16 16" width="16" height="16">
    <path d="M15.7824 13.833L12.6666 10.7177C12.5259 10.5771 12.3353 10.499 12.1353 10.499H11.6259C12.4884 9.39596 13.001 8.00859 13.001 6.49937C13.001 2.90909 10.0914 0 6.50048 0C2.90959 0 0 2.90909 0 6.49937C0 10.0896 2.90959 12.9987 6.50048 12.9987C8.00996 12.9987 9.39756 12.4863 10.5008 11.6239V12.1332C10.5008 12.3332 10.5789 12.5238 10.7195 12.6644L13.8354 15.7797C14.1292 16.0734 14.6042 16.0734 14.8948 15.7797L15.7793 14.8954C16.0731 14.6017 16.0731 14.1267 15.7824 13.833ZM6.50048 10.499C4.29094 10.499 2.50018 8.71165 2.50018 6.49937C2.50018 4.29021 4.28781 2.49976 6.50048 2.49976C8.71001 2.49976 10.5008 4.28708 10.5008 6.49937C10.5008 8.70852 8.71314 10.499 6.50048 10.499Z" fill="white"/>
  </symbol>


  <symbol viewBox="0 0 448 512" id="instagram">
    <path
      d="M224.1 141c-63.6 0-114.9 51.3-114.9 114.9s51.3 114.9 114.9 114.9S339 319.5 339 255.9 287.7 141 224.1 141zm0 189.6c-41.1 0-74.7-33.5-74.7-74.7s33.5-74.7 74.7-74.7 74.7 33.5 74.7 74.7-33.6 74.7-74.7 74.7zm146.4-194.3c0 14.9-12 26.8-26.8 26.8-14.9 0-26.8-12-26.8-26.8s12-26.8 26.8-26.8 26.8 12 26.8 26.8zm76.1 27.2c-1.7-35.9-9.9-67.7-36.2-93.9-26.2-26.2-58-34.4-93.9-36.2-37-2.1-147.9-2.1-184.9 0-35.8 1.7-67.6 9.9-93.9 36.1s-34.4 58-36.2 93.9c-2.1 37-2.1 147.9 0 184.9 1.7 35.9 9.9 67.7 36.2 93.9s58 34.4 93.9 36.2c37 2.1 147.9 2.1 184.9 0 35.9-1.7 67.7-9.9 93.9-36.2 26.2-26.2 34.4-58 36.2-93.9 2.1-37 2.1-147.8 0-184.8zM398.8 388c-7.8 19.6-22.9 34.7-42.6 42.6-29.5 11.7-99.5 9-132.1 9s-102.7 2.6-132.1-9c-19.6-7.8-34.7-22.9-42.6-42.6-11.7-29.5-9-99.5-9-132.1s-2.6-102.7 9-132.1c7.8-19.6 22.9-34.7 42.6-42.6 29.5-11.7 99.5-9 132.1-9s102.7-2.6 132.1 9c19.6 7.8 34.7 22.9 42.6 42.6 11.7 29.5 9 99.5 9 132.1s2.7 102.7-9 132.1z">
    </path>
  </symbol>

  <symbol viewBox="0 0 448 512" id="facebook">
    <path
      d="m279.14 288 14.22-92.66h-88.91v-60.13c0-25.35 12.42-50.06 52.24-50.06h40.42V6.26S260.43 0 225.36 0c-73.22 0-121.08 44.38-121.08 124.72v70.62H22.89V288h81.39v224h100.17V288z" />
  </symbol>

  <symbol viewBox="0 0 448 512" id="twitter">
    <path
      d="M459.37 151.716c.325 4.548.325 9.097.325 13.645 0 138.72-105.583 298.558-298.558 298.558-59.452 0-114.68-17.219-161.137-47.106 8.447.974 16.568 1.299 25.34 1.299 49.055 0 94.213-16.568 130.274-44.832-46.132-.975-84.792-31.188-98.112-72.772 6.498.974 12.995 1.624 19.818 1.624 9.421 0 18.843-1.3 27.614-3.573-48.081-9.747-84.143-51.98-84.143-102.985v-1.299c13.969 7.797 30.214 12.67 47.431 13.319-28.264-18.843-46.781-51.005-46.781-87.391 0-19.492 5.197-37.36 14.294-52.954 51.655 63.675 129.3 105.258 216.365 109.807-1.624-7.797-2.599-15.918-2.599-24.04 0-57.828 46.782-104.934 104.934-104.934 30.213 0 57.502 12.67 76.67 33.137 23.715-4.548 46.456-13.32 66.599-25.34-7.798 24.366-24.366 44.833-46.132 57.827 21.117-2.273 41.584-8.122 60.426-16.243-14.292 20.791-32.161 39.308-52.628 54.253z" />
  </symbol>

  <symbol viewBox="0 0 24 24" id="linkedin">
    <path d="M5.37226 24H0.396437V7.97643H5.37226V24ZM2.88167 5.79066C1.29056 5.79066 0 4.47278 0 2.88167C1.13885e-08 2.1174 0.303604 1.38444 0.844022 0.844022C1.38444 0.303604 2.1174 0 2.88167 0C3.64594 0 4.3789 0.303604 4.91932 0.844022C5.45974 1.38444 5.76334 2.1174 5.76334 2.88167C5.76334 4.47278 4.47224 5.79066 2.88167 5.79066ZM23.9952 24H19.0301V16.1998C19.0301 14.3409 18.9926 11.9569 16.443 11.9569C13.856 11.9569 13.4596 13.9766 13.4596 16.0659V24H8.48912V7.97643H13.2614V10.1622H13.331C13.9953 8.90323 15.618 7.57463 18.039 7.57463C23.0748 7.57463 24.0005 10.8908 24.0005 15.198V24H23.9952Z"/>
  </symbol>

</svg>